<svg width="1282" height="441" viewBox="0 0 1282 441" fill="none" xmlns="http://www.w3.org/2000/svg">
<rect x="5" y="22" width="1277" height="369" fill="#F08AA0"/>
<path d="M1041.43 393.41C1058.87 382.736 1080.15 342.694 1070.99 328.638C1063.66 317.393 1017.72 340.559 995.661 353.547L990.351 348.248C968.734 334.8 925.607 312.475 926.036 330.752C926.466 349.029 946.044 380.026 955.78 393.24" stroke="#BE2233" stroke-width="5"/>
<path d="M1230 30.164C1203.2 34.964 1188.83 78.4973 1185 99.6639C1174.6 40.8639 1137.67 37.164 1120.5 42.664C1104.1 45.064 1096.5 65 1096.5 85.4999C1120.5 178 1177.17 199.331 1198 199.164C1208.4 199.164 1223.67 181.831 1230 173.164C1299.5 60.4997 1251 27.664 1230 30.164Z" stroke="#BE2233" stroke-width="5"/>
<path d="M163 390.5L183.5 382L203 395L178.5 400" stroke="#BE2233" stroke-width="5"/>
<path d="M343.5 399.5C327.834 354.334 297.6 291.1 302 399.5" stroke="#BE2233" stroke-width="5"/>
<path d="M282.5 397.5C277 372.167 255.4 314.2 213 285C160 248.5 196.5 296 196.5 299.5C196.5 303 243 379 237.5 397.5" stroke="#BE2233" stroke-width="5"/>
<path d="M184.252 347.217C178.752 321.884 157.152 263.917 114.752 234.717C61.7517 198.217 98.2517 245.717 98.2517 249.217C98.2517 252.717 144.752 328.717 139.252 347.217" stroke="#BE2233" stroke-width="5"/>
<path d="M163.922 389.422C138.321 394.122 75.6233 395.661 29.6383 364.221C-27.843 324.921 32.1241 342.875 35.3139 341.449C38.5036 340.023 129.014 356.587 143.361 343.428" stroke="#BE2233" stroke-width="5"/>
<path d="M237.5 397.5L195 377L183.5 346.5" stroke="#BE2233" stroke-width="5"/>
<path d="M224 54.5C237.667 49 265 37.3 265 34.5C265 31 270.5 10 256 4.5" stroke="#BE2233" stroke-width="5"/>
<path d="M138 3C137.333 23 128.3 56.5 97.5 30.5C83.8333 9.83333 45.6 -19.1 2 30.5" stroke="#BE2233" stroke-width="5"/>
<path d="M4 99.5C14.6667 103.833 36 108.6 36 93C36 77.4 36 84.1666 36 89.5C36 72.5 44.6 47.9 79 85.5C93 98.6667 127.5 117.1 153.5 85.5C159.5 78 172.2 59.8999 175 47.4999C182.5 35.4999 203.3 20.2999 226.5 55.4999" stroke="#BE2233" stroke-width="5"/>
<rect x="11" y="391" width="1271" height="22" fill="white"/>
</svg>
